<svg height="128" width="128" xmlns="http://www.w3.org/2000/svg"><rect x="2" y="2" width="124" height="124" rx="14" fill="#363d52" stroke="#212532" stroke-width="4"/><g transform="scale(.101) translate(122 122)"><g fill="#fff"><path d="m105 673v33q407 354 814 0v-33z"/><path fill="#478cbf" d="m105 673v33q407 354 814 0v-33z"/></g><g fill="#414042"><circle cx="423" cy="404" r="53"/><circle cx="572" cy="404" r="53"/><circle cx="498" cy="467" r="30"/><path d="m498 262v103q55 0 105 40 35 27 65 65 47 52 47 122 0 77-50 130-49 52-120 52-75 0-125-52-50-53-50-130 0-70 47-122 30-38 65-65 50-40 105-40z"/></g><g fill="#fff"><circle cx="423" cy="404" r="26"/><circle cx="572" cy="404" r="26"/><circle cx="498" cy="467" r="15"/></g></g></svg>